<svg xmlns="http://www.w3.org/2000/svg" width="817.12787pt" height="450pt" viewBox="0 0 817.12789 449.99999"><path fill="#00457e" d="M135.158 289.342h-36.41l-53.22-71.637-15.514 16.638v55H0V129.058h30.014v65.095l64.344-65.095h37.506l-65.507 69.033zM193.643 289.345h-30.499V129.062h30.499z" style="stroke-width:6.64169"/><path fill="#00457e" d="M453.704 194.883c-23.531-8.07-31.096-14.14-31.096-24.992 0-9.093 8.674-18.265 28.014-18.265 13.782 0 24.309 3.706 30.711 6.808l7.539 3.487v-28.493c-6.595-2.916-18.836-6.821-37.492-6.821-35.042 0-59.517 18.723-59.517 45.542 0 28.712 27.504 40.667 48.08 47.11 24.514 8.348 29.31 15.826 29.31 25.875 0 13.204-12.089 21.406-31.555 21.406-12.772 0-26.846-3.513-37.659-9.384l-5.864-2.956v28.965c12.26 5.618 26.713 8.647 41.988 8.647 47.31 0 64.106-25.995 64.106-48.238 0-28.905-23.532-40.833-46.565-48.69" style="stroke-width:6.64167"/><path fill="#9d9d9f" d="M315.473 177.764c-.425-.81-1.594-.81-2.013.014l-33.54 69.233h-8.535c-.418 0-.83.239-1.022.644l-10.933 21.997c-.192.399-.172.73.127 1.202l5.433 6.934-3.939 8.94-13.496-17.255 66.928-138.957 53.273 108.073V0H221.752v268.855l67.705-139.794h21.632l-67.711 139.794h-21.626v3.474H244.7l13.29 17.016h-22.708l-13.529-17.016V450h146.004V289.345h-89.31l-13.264-17.016h72.215c.883 0 1.382-.91 1.03-1.634l-33.461-67.825 9.524-19.666 53.266 106.14v-7.418zm9.06 73.105 8.88 17.986h-69.34l9.192-17.986z" style="stroke-width:6.64167"/><path fill="#00457e" d="M551.36 139.174h5.592v10.54l9.943-10.54h6.96l-9.929 10.03 10.906 15.395h-7.02l-7.658-11.45-3.202 3.247v8.203h-5.592z" style="stroke-width:6.64169"/><path fill="#00457e" d="M587.195 138.554c7.877 0 12.493 5.878 12.493 13.43 0 7.332-4.616 13.21-12.493 13.21-7.87 0-12.506-5.878-12.506-13.21 0-7.552 4.636-13.43 12.506-13.43m0 21.93c5.021 0 6.907-4.27 6.907-8.5 0-4.45-1.886-8.734-6.907-8.734s-6.914 4.284-6.914 8.734c0 4.23 1.893 8.5 6.914 8.5M603.491 139.174h13.722c4.55 0 7.419 3.162 7.419 7.007 0 2.996-1.196 5.227-4.005 6.376v.067c2.736.71 3.52 3.387 3.712 5.964.08 1.587.06 4.583 1.05 6.01h-5.593c-.664-1.607-.604-4.05-.883-6.09-.392-2.676-1.428-3.852-4.244-3.852h-5.579v9.943h-5.599zm5.6 11.497h6.11c2.497 0 3.845-1.07 3.845-3.626 0-2.471-1.348-3.554-3.846-3.554h-6.11z" style="stroke-width:6.64167"/><path fill="#00457e" d="M629.19 139.174h19.015v4.696h-13.43v5.44h12.327v4.356h-12.327v6.237h13.715v4.696h-19.3zM660.463 139.174h5.739l9.504 25.425h-5.798l-1.933-5.666h-9.504l-2 5.666h-5.651zm-.53 15.588h6.588l-3.202-9.325h-.066zM551.363 203.986h5.586V178.55h-5.586zM561.866 178.552h5.546l10.62 17.055h.066v-17.055h5.234v25.43h-5.573l-10.586-17.029h-.067v17.03h-5.24z" style="stroke-width:6.64169"/><path fill="#00457e" d="M592.049 195.527c0 3.394 2.637 4.709 5.625 4.709 1.953 0 4.948-.572 4.948-3.168 0-2.757-3.799-3.202-7.545-4.198-3.779-1.003-7.584-2.457-7.584-7.233 0-5.2 4.921-7.704 9.504-7.704 5.313 0 10.168 2.325 10.168 8.196h-5.4c-.179-3.049-2.337-3.832-5.027-3.832-1.767 0-3.839.737-3.839 2.882 0 1.946 1.215 2.205 7.585 3.839 1.86.471 7.551 1.634 7.551 7.405 0 4.676-3.66 8.156-10.56 8.156-5.639 0-10.899-2.77-10.846-9.052z" style="stroke-width:6.64167"/><path fill="#00457e" d="M616.966 183.25h-7.624v-4.696h20.835v4.696h-7.625v20.729h-5.586zM633.09 203.986h5.585V178.55h-5.586zM649.224 183.25H641.6v-4.696h20.821v4.696h-7.604v20.729h-5.593z" style="stroke-width:6.64169"/><path fill="#00457e" d="M686.932 194.37c0 6.867-4.078 10.208-10.88 10.208-6.827 0-10.805-3.314-10.805-10.208v-15.82h5.579v15.82c0 2.763.704 5.506 5.227 5.506 3.991 0 5.28-1.74 5.28-5.506v-15.82h5.599z" style="stroke-width:6.64167"/><path fill="#00457e" d="M697.342 183.25h-7.611v-4.696h20.821v4.696h-7.624v20.729h-5.586zM713.471 178.552h19.009v4.695h-13.423v5.46h12.32v4.337h-12.32v6.236h13.708v4.703h-19.294zM746.433 178.552h17.872v4.695h-12.287v5.878h10.647v4.35h-10.647v10.508h-5.585z" style="stroke-width:6.64169"/><path fill="#00457e" d="M778.946 177.931c7.85 0 12.487 5.885 12.487 13.443 0 7.326-4.636 13.203-12.487 13.203-7.883 0-12.513-5.877-12.513-13.203 0-7.558 4.63-13.443 12.513-13.443m0 21.944c5.008 0 6.888-4.264 6.888-8.501 0-4.463-1.88-8.727-6.888-8.727-5.034 0-6.907 4.264-6.907 8.727 0 4.237 1.873 8.501 6.907 8.501M795.23 178.552h13.715c4.557 0 7.439 3.174 7.439 7.013 0 2.989-1.215 5.227-4.025 6.37v.073c2.743.717 3.52 3.387 3.72 5.95.106 1.601.06 4.59 1.049 6.025h-5.592c-.671-1.614-.591-4.078-.87-6.097-.399-2.657-1.422-3.84-4.258-3.84h-5.592v9.937h-5.586zm5.586 11.503h6.137c2.477 0 3.852-1.063 3.852-3.633 0-2.457-1.375-3.527-3.852-3.527h-6.137z" style="stroke-width:6.64167"/><path fill="#00457e" d="M558.306 217.935h5.738l9.511 25.437h-5.811l-1.92-5.678h-9.51l-1.993 5.678h-5.666zm-.532 15.601h6.589l-3.215-9.332h-.073z" style="stroke-width:6.64169"/><path fill="#00457e" d="M576.176 217.935h10.965c6.582 0 11.55 4.124 11.55 12.566 0 7.372-3.786 12.871-11.55 12.871h-10.965zm5.599 20.728h4.981c3.241 0 6.336-1.992 6.336-7.624 0-5.128-1.793-8.409-7.339-8.409h-3.978z" style="stroke-width:6.64167"/><path fill="#00457e" d="M614.682 243.372h-6.296l-8.262-25.438h5.751l5.672 17.866h.073l5.732-17.866h5.785zM630.818 217.935h5.738l9.51 25.437h-5.81l-1.92-5.678h-9.51l-2.007 5.678h-5.652zm-.518 15.601h6.575l-3.208-9.332h-.073zM648.938 217.935h5.546l10.613 17.055h.073v-17.055h5.234v25.437h-5.586l-10.586-17.042h-.073v17.042h-5.22z" style="stroke-width:6.64169"/><path fill="#00457e" d="M692.256 226.472c-.352-2.53-2.77-4.45-5.545-4.45-5.028 0-6.921 4.284-6.921 8.734 0 4.23 1.893 8.508 6.92 8.508 3.414 0 5.34-2.344 5.759-5.698h5.413c-.558 6.336-4.948 10.387-11.171 10.387-7.87 0-12.5-5.878-12.5-13.197 0-7.558 4.63-13.416 12.5-13.416 5.579 0 10.288 3.261 10.965 9.132z" style="stroke-width:6.64167"/><path fill="#00457e" d="M701.683 217.935h19.015v4.695h-13.43v5.466h12.334v4.318H707.27v6.25h13.715v4.708h-19.301z" style="stroke-width:6.64169"/><path fill="#00457e" d="M724.764 217.935h10.946c6.601 0 11.536 4.124 11.536 12.566 0 7.372-3.759 12.871-11.536 12.871h-10.946zm5.58 20.728h4.98c3.235 0 6.343-1.992 6.343-7.624 0-5.128-1.773-8.409-7.332-8.409h-3.992zM555.17 274.293c0 3.388 2.637 4.71 5.626 4.71 1.96 0 4.954-.572 4.954-3.169 0-2.743-3.805-3.208-7.551-4.19-3.766-.997-7.592-2.478-7.592-7.247 0-5.2 4.922-7.69 9.518-7.69 5.307 0 10.182 2.324 10.182 8.188h-5.413c-.16-3.055-2.365-3.839-5.021-3.839-1.78 0-3.853.738-3.853 2.883 0 1.96 1.222 2.212 7.585 3.852 1.853.465 7.552 1.634 7.552 7.406 0 4.669-3.653 8.149-10.587 8.149-5.619 0-10.872-2.77-10.813-9.053z" style="stroke-width:6.64167"/><path fill="#00457e" d="M580.082 262.016h-7.612v-4.702h20.822v4.702h-7.618v20.729h-5.592z" style="stroke-width:6.64169"/><path fill="#00457e" d="M617.783 273.124c0 6.874-4.058 10.222-10.852 10.222-6.828 0-10.833-3.315-10.833-10.222V257.31h5.606v15.814c0 2.79.71 5.52 5.227 5.52 3.992 0 5.267-1.74 5.267-5.52V257.31h5.585zM622.595 257.311h10.972c6.576 0 11.524 4.138 11.524 12.573 0 7.379-3.766 12.858-11.524 12.858h-10.972zm5.6 20.729h4.96c3.255 0 6.343-1.993 6.343-7.625 0-5.127-1.773-8.401-7.319-8.401h-3.985z" style="stroke-width:6.64167"/><path fill="#00457e" d="m654.305 272.838-9.385-15.528h6.316l5.938 10.042 5.917-10.042h6.23l-9.437 15.674v9.757h-5.58z" style="stroke-width:6.64169"/></svg>