<svg xmlns="http://www.w3.org/2000/svg" id="_레이어_1" version="1.1" viewBox="0 0 1271.6205694 470.6703796"><defs><style>.st0{fill:#1428a0}</style></defs><g id="_레이어_11"><g id="_레이어_1-2"><path id="a" d="M84.375 134.42c1.749 4.326 1.194 9.869.34 13.228-1.493 5.964-5.589 12.053-17.707 12.053-11.35 0-18.263-6.467-18.263-16.21v-17.803H0v13.774c0 39.894 31.464 51.946 65.203 51.946 32.432 0 59.137-11.003 63.391-40.86 2.19-15.453.59-25.574-.168-29.311-7.582-37.458-75.649-48.628-80.746-69.583a22.9 22.9 0 0 1-.168-9.406c1.264-5.753 5.18-12.01 16.385-12.01 10.53 0 16.638 6.467 16.638 16.209v12.5h46.625V45.394C127.16 6.425 91.615.336 65.927.336 33.583.336 7.17 10.876 2.348 40.062c-1.28 7.978-1.493 15.117.427 24.104 7.894 36.534 72.455 47.116 81.842 70.255" class="st0"/><path d="m195.38 6.846-33.406 177.242h48.39l24.935-162.684h1.026l24.251 162.684h48.134L275.515 6.804zm274.029-.042-22.212 135.57h-1.058L423.97 6.804h-74.307l-4.023 179.37h46.437l1.122-162.685h1.037l30.695 162.684h43.492L499.169 23.49h.993l1.155 162.684h45.565l-4.021-179.37z" class="st0"/><path id="a-2" d="M675.667 134.085c1.75 4.325 1.195 9.868.342 13.227-1.494 5.963-5.59 12.052-17.709 12.052-11.35 0-18.262-6.467-18.262-16.209v-17.467h-48.745v13.774c0 39.894 31.464 51.946 65.203 51.946 32.432 0 59.137-11.003 63.391-40.86 2.19-15.453.59-25.574-.168-29.311-7.582-37.458-75.65-48.628-80.746-69.583a22.9 22.9 0 0 1-.168-9.406c1.264-5.753 5.18-12.01 16.385-12.01 10.53 0 16.637 6.466 16.637 16.209V56.86h46.626v-11.8C718.453 6.089 682.908 0 657.22 0c-32.345 0-58.758 10.54-63.58 39.726-1.28 7.978-1.493 15.117.427 24.104 7.894 36.534 72.455 47.116 81.842 70.255" class="st0"/><path d="M827.776 158.105c12.63 0 16.514-8.567 17.41-12.934.384-1.932.426-4.535.426-6.845V6.804h46.626v128.205q.013 5.888-.425 11.759c-3.187 33.384-29.868 44.218-63.134 44.218-33.309 0-59.99-10.834-63.176-44.218-.128-1.764-.467-8.483-.425-11.759V6.804h46.625v131.48c-.042 2.352.043 4.955.427 6.887.853 4.367 4.779 12.934 17.452 12.934M1051.187 6.804l2.483 139.741h-.984l-41.95-139.741h-67.634v177.284h44.506l-2.466-145.999h.978l44.676 145.999h64.897V6.804zm156.916 149.453c13.143 0 17.751-8.189 18.562-13.018.384-1.973.427-4.493.427-6.719v-27.517h-19.074V83.974h63.58v47.957c0 3.36-.086 5.795-.641 11.758-2.99 32.587-31.743 44.219-63.999 44.219s-60.965-11.632-63.999-44.22c-.512-5.962-.64-8.398-.64-11.757V57.153c0-3.192.428-8.819.77-11.758 4.07-33.469 31.7-44.22 64.04-44.22s60.7 10.667 64.04 44.178c.6 5.71.429 11.758.429 11.758v6.005h-44.506V53.08s0-4.2-.563-6.803c-.866-3.948-4.33-13.018-18.446-13.018-13.424 0-17.364 8.608-18.36 13.018-.563 2.351-.78 5.543-.78 8.44v81.761c0 2.268.086 4.787.428 6.803.853 4.787 5.461 12.976 18.604 12.976" class="st0"/></g></g><path d="M932.716 335.505v-55.547h-23.487v185.678h23.487v-110.38h21.97v-19.751zM859.382 315.488v-10.193h33.95v-19.774H802.45v19.774h33.956v10.193c-1.123 42.658-2.57 73.655-39.733 106.605l15.221 16.728s31.343-29.083 35.987-55.168c4.664 26.085 36.036 55.168 36.036 55.168l15.202-16.728c-37.182-32.95-38.615-63.947-39.737-106.605M478.575 318.448h-20.419v-38.557h-24.02v97.744h24.02v-39.157h20.419zM345.36 465.665h112.796v-79.918H345.36zm23.02-60.49h66.657v40.86H368.38zM597.076 377.635h23.62v-97.744h-24.02v38.557H566.45v20.03h30.626zM757.414 318.448H731.29v20.03h26.523v61.99h23.62V279.892h-24.02zM561.545 380.138c-34.529 0-62.553 20.23-62.553 45.265 0 25.038 27.924 45.267 62.553 45.267 34.63 0 62.554-20.23 62.554-45.267 0-25.036-28.023-45.265-62.554-45.265m0 70.603c-21.418 0-38.833-11.416-38.833-25.338 0-13.92 17.415-25.236 38.833-25.236s38.934 11.316 38.934 25.236c0 13.922-17.415 25.338-38.934 25.338M366.277 331.867h.1c7.106 22.633 38.433 43.364 38.433 43.364l12.31-17.025c-42.737-21.832-39.634-74.81-39.634-74.81h-22.219s3.103 52.878-39.734 74.81l12.31 17.025s31.327-20.73 38.434-43.364M525.965 332.012c7.183 22.569 35.78 41.416 35.78 41.416l12.311-17.025c-40.134-20.13-37.032-73.007-37.032-73.007h-22.118s3.102 52.878-37.033 73.007l12.311 17.025s28.598-18.847 35.781-41.416M691.057 385.647h-23.02v80.018h113.39699999999999v-19.83h-90.377z" class="st0"/><path d="M694.06 338.078c8.207 23.234 42.636 41.761 42.636 41.761l12.01-16.424c-37.532-18.227-41.336-40.76-41.436-58.085h34.03V285.5h-93.88v19.83h33.428c-.2 17.425-4.003 39.858-41.436 58.085l12.011 16.424s34.429-18.527 42.636-41.761" class="st0"/></svg>