<svg xmlns="http://www.w3.org/2000/svg" width="277.05228mm" height="107.58022mm" viewBox="0 0 277.05228 107.58022"><g style="stroke-width:.17309"><g style="stroke-width:.17309"><path d="M0 0h6.152v-2.646h.075C7.383-.67 9.992.559 12.303.559c6.451 0 6.972-4.698 6.972-7.493V-19.35h-6.337v9.358c0 2.648.298 5.332-3.17 5.332-2.385 0-3.43-2.014-3.43-4.139V-19.35H0Z" style="fill:#555658;fill-opacity:1;fill-rule:nonzero;stroke:none;stroke-width:.17309" transform="matrix(2.03812 0 0 -2.03812 129.405 14.816)"/></g><g style="stroke-width:.17309"><path d="M0 0c0-.969.408-1.678 1.043-2.162.596-.447 1.453-.672 2.35-.672 1.23 0 2.982.523 2.982 2.051 0 1.49-1.977 1.789-3.096 2.051-3.988 1.005-8.986 1.117-8.986 6.337 0 4.661 5.033 5.928 8.838 5.928 4.25 0 8.685-1.23 8.91-6.263H6.188c0 .82-.297 1.343-.821 1.677-.521.336-1.23.485-2.012.485-1.044 0-2.722-.112-2.722-1.453 0-1.827 4.25-2.163 7.158-2.797 3.914-.784 4.92-3.618 4.92-5.219 0-5.184-4.92-6.899-9.281-6.899-4.588 0-9.285 1.53-9.471 6.936z" style="fill:#555658;fill-opacity:1;fill-rule:nonzero;stroke:none;stroke-width:.17309" transform="matrix(2.03812 0 0 -2.03812 185.7 41.403)"/></g><g style="stroke-width:.17309"><path d="M0 0c2.945 0 3.877 2.906 3.877 5.369 0 2.461-.932 5.404-3.877 5.404S-3.84 7.83-3.84 5.369C-3.84 2.906-2.945 0 0 0m0 15.621c6.002 0 10.217-4.437 10.217-10.252S6.002-4.848 0-4.848-10.18-.447-10.18 5.369c0 5.815 4.178 10.252 10.18 10.252" style="fill:#555658;fill-opacity:1;fill-rule:nonzero;stroke:none;stroke-width:.17309" transform="matrix(2.03812 0 0 -2.03812 235.152 45.44)"/></g><path d="M166.33 441.26h6.338v-26.619h-6.338z" style="fill:#555658;fill-opacity:1;fill-rule:nonzero;stroke:none;stroke-width:.17309" transform="matrix(2.03812 0 0 -2.03812 -78.945 899.342)"/><g style="stroke-width:.17309"><path d="M0 0h7.244v-9.847h8.381V0h7.191v-26.619h-7.191v10.498H7.244v-10.498H0Z" style="fill:#555658;fill-opacity:1;fill-rule:nonzero;stroke:none;stroke-width:.17309" transform="matrix(2.03812 0 0 -2.03812 31.79 0)"/></g><path d="M47.007 441.26h-8.273v-9.451h8.273z" style="fill:#007dc5;fill-opacity:1;fill-rule:nonzero;stroke:none;stroke-width:.17309" transform="matrix(2.03812 0 0 -2.03812 -78.945 899.342)"/><path d="M47.007 424.434h-8.273v-9.793h8.273z" style="fill:#00a650;fill-opacity:1;fill-rule:nonzero;stroke:none;stroke-width:.17309" transform="matrix(2.03812 0 0 -2.03812 -78.945 899.342)"/><g style="stroke-width:.17309"><path d="M0 0c3.02 0 4.025 1.713 3.875 5.703-.893-.558-2.533-.672-3.912-1.045-1.416-.336-2.609-.931-2.609-2.459C-2.646.633-1.416 0 0 0m-8.201 10.027c.111 2.536 1.305 4.174 3.019 5.182 1.715.969 3.952 1.342 6.151 1.342 4.586 0 9.021-1.006 9.021-6.487V1.602c0-1.641 0-3.43.746-4.957H4.361c-.222.595-.297 1.191-.373 1.825-1.64-1.714-4.062-2.384-6.373-2.384-3.691 0-6.597 1.863-6.597 5.852 0 6.3 6.857 5.814 11.255 6.708 1.082.225 1.678.596 1.678 1.792 0 1.453-1.752 2.013-3.056 2.013-1.752 0-2.872-.783-3.168-2.424z" style="fill:#555658;fill-opacity:1;fill-rule:nonzero;stroke:none;stroke-width:.17309" transform="matrix(2.03812 0 0 -2.03812 101.532 47.414)"/></g><g style="stroke-width:.17309"><path d="M0 0h-1.67c.62 1.859.553 3.418.553 3.418h-6.538V2.326h5.141A8.3 8.3 0 0 0-3.011-.01h-4.607v-1.094h4.089c-1.689-2.908-4.836-3.602-4.836-3.602l.404-1.078c3.247.825 4.954 2.788 5.854 4.69H0v-8.198h1.305V4H0Z" style="fill:#555658;fill-opacity:1;fill-rule:nonzero;stroke:none;stroke-width:.17309" transform="matrix(2.03812 0 0 -2.03812 212.112 88.642)"/></g><path d="M144.991 388.476h1.306v13.292h-1.306z" style="fill:#555658;fill-opacity:1;fill-rule:nonzero;stroke:none;stroke-width:.17309" transform="matrix(2.03812 0 0 -2.03812 -78.945 899.342)"/><g style="stroke-width:.17309"><path d="M0 0h-1.299v-1.596h-6.105v-1.088H5.955v1.088H0Z" style="fill:#555658;fill-opacity:1;fill-rule:nonzero;stroke:none;stroke-width:.17309" transform="matrix(2.03812 0 0 -2.03812 179.866 88.666)"/></g><g style="stroke-width:.17309"><path d="M0 0h8.699v-1.113H0v-3.286h9.998v1.089H1.299v1.111h8.699v3.285H0Z" style="fill:#555658;fill-opacity:1;fill-rule:nonzero;stroke:none;stroke-width:.17309" transform="matrix(2.03812 0 0 -2.03812 168.007 98.59)"/></g><g style="stroke-width:.17309"><path d="M0 0h-1.3v-9.911H0v4.815h2.199v1.09H0Z" style="fill:#555658;fill-opacity:1;fill-rule:nonzero;stroke:none;stroke-width:.17309" transform="matrix(2.03812 0 0 -2.03812 158.764 80.458)"/></g><g style="stroke-width:.17309"><path d="M0 0h-1.3v-3.386h9.478v1.09H0Z" style="fill:#555658;fill-opacity:1;fill-rule:nonzero;stroke:none;stroke-width:.17309" transform="matrix(2.03812 0 0 -2.03812 142.093 100.66)"/></g><g style="stroke-width:.17309"><path d="M0 0c0 1.268 1.33 1.75 2.971 1.75S5.942 1.268 5.942 0c0-1.273-1.33-1.754-2.971-1.754S0-1.273 0 0m7.33 0c0 1.887-1.952 2.84-4.359 2.84S-1.39 1.887-1.39 0c0-1.891 1.953-2.844 4.361-2.844S7.33-1.891 7.33 0" style="fill:#555658;fill-opacity:1;fill-rule:nonzero;stroke:none;stroke-width:.17309" transform="matrix(2.03812 0 0 -2.03812 139.01 92.91)"/></g><path d="M114.081 400.145h-8.342v-1.086h8.342zM111.844 401.778h-3.869v-1.088h3.869z" style="fill:#555658;fill-opacity:1;fill-rule:nonzero;stroke:none;stroke-width:.17309" transform="matrix(2.03812 0 0 -2.03812 -78.945 899.342)"/><g style="stroke-width:.17309"><path d="M0 0c1.672-2.48 5.838-2.93 5.838-2.93l.205 1.086C.853-1.191.676 1.656.676 2.047q.002.024.006.047H-.682q.004-.025.008-.047c0-.391-.18-3.238-5.369-3.891l.205-1.086S-1.673-2.48 0 0" style="fill:#555658;fill-opacity:1;fill-rule:nonzero;stroke:none;stroke-width:.17309" transform="matrix(2.03812 0 0 -2.03812 178.536 83.73)"/></g><path d="M149.953 400.11h5.062v-7.086h-5.062zm-1.314-8.18h7.688v9.274h-7.688zM158.47 388.491h1.304v13.277h-1.304z" style="fill:#555658;fill-opacity:1;fill-rule:nonzero;stroke:none;stroke-width:.17309" transform="matrix(2.03812 0 0 -2.03812 -78.945 899.342)"/><g style="stroke-width:.17309"><path d="M0 0h8.453v-1.109H0v-3.288h9.753v1.087H1.299v1.111h8.454V1.09H0Z" style="fill:#555658;fill-opacity:1;fill-rule:nonzero;stroke:none;stroke-width:.17309" transform="matrix(2.03812 0 0 -2.03812 253.047 98.583)"/></g><g style="stroke-width:.17309"><path d="M0 0v2.65h-1.301v-7.275H0v3.551h2.026V0Z" style="fill:#555658;fill-opacity:1;fill-rule:nonzero;stroke:none;stroke-width:.17309" transform="matrix(2.03812 0 0 -2.03812 272.923 85.867)"/></g><g style="stroke-width:.17309"><path d="M0 0h-6.853v-1.094h5.335a5.5 5.5 0 0 0-.657-1.857v.084h-4.673v-1.09h3.938c-1.786-1.939-4.562-2.299-4.562-2.299l.159-1.082C.128-6.186 0 0 0 0" style="fill:#555658;fill-opacity:1;fill-rule:nonzero;stroke:none;stroke-width:.17309" transform="matrix(2.03812 0 0 -2.03812 265.537 81.122)"/></g></g></svg>